<svg width="172" height="20" viewBox="0 0 172 20" fill="none" xmlns="http://www.w3.org/2000/svg">
<g clip-path="url(#clip0_1184_2)">
<path d="M93.8062 3.39076C93.8062 3.39076 93.8062 3.3836 93.8062 3.38002C93.8062 3.37375 93.8062 3.36749 93.8044 3.36122C93.8035 3.3487 93.8009 3.33706 93.7982 3.32543C93.7982 3.32185 93.7982 3.31827 93.7964 3.31558C93.7964 3.31379 93.7946 3.312 93.7946 3.31021C93.7902 3.295 93.7849 3.27979 93.7777 3.26547C93.7777 3.26368 93.7769 3.26189 93.776 3.261C93.768 3.24578 93.7591 3.23236 93.7493 3.21894C93.7457 3.21446 93.7422 3.20999 93.7377 3.20551C93.7306 3.19656 93.7226 3.18851 93.7146 3.18135C93.7102 3.17688 93.7057 3.1733 93.7004 3.16972C93.6915 3.16256 93.6826 3.15629 93.6728 3.15003C93.6684 3.14734 93.6639 3.14376 93.6586 3.14108C93.647 3.13482 93.6346 3.12945 93.6221 3.12497C93.6186 3.12408 93.615 3.12229 93.6115 3.1205H93.6097L84.0125 0.0143183C84.0062 0.0125285 84 0.0116336 83.9938 0.00984384C83.9885 0.00805405 83.9822 0.00715916 83.9769 0.00536937C83.96 0.00178979 83.9431 0 83.9253 0C83.9084 0 83.8915 0.00178979 83.8746 0.00536937C83.8684 0.00626426 83.8631 0.00805405 83.8578 0.00984384C83.8515 0.0116336 83.8453 0.0125285 83.8391 0.0143183L74.1974 3.11871C74.08 3.15629 74 3.26637 74 3.39076V16.611C74 16.611 74 16.6182 74 16.6218C74 16.628 74 16.6343 74.0018 16.6406C74.0027 16.6531 74.0053 16.6647 74.008 16.6773C74.008 16.6808 74.008 16.6844 74.0098 16.6871C74.0098 16.6889 74.0116 16.6907 74.0116 16.6925C74.016 16.7086 74.0222 16.7238 74.0293 16.7381C74.0293 16.739 74.0302 16.7408 74.0311 16.7417C74.0391 16.7569 74.048 16.7712 74.0587 16.7846C74.0622 16.7891 74.0658 16.7927 74.0694 16.7963C74.0774 16.8052 74.0854 16.8142 74.0942 16.8222C74.0987 16.8258 74.1022 16.8294 74.1067 16.833C74.1156 16.8401 74.1254 16.8473 74.136 16.8535C74.1405 16.8562 74.1449 16.8589 74.1494 16.8616C74.1609 16.8679 74.1734 16.8732 74.1858 16.8786C74.1894 16.8795 74.1921 16.8813 74.1956 16.8831C74.1956 16.8831 74.1974 16.8831 74.1983 16.884L83.7662 19.9642C83.8071 19.9875 83.8533 20.0018 83.904 20.0018C83.904 20.0018 83.9093 20.0018 83.9129 20.0018C83.9173 20.0018 83.9227 20.0027 83.9271 20.0027C83.9404 20.0027 83.9547 20.0018 83.968 19.9991C83.9716 19.9991 83.976 19.9973 83.9796 19.9973C83.9893 19.9955 83.9991 19.9937 84.008 19.9902C84.0098 19.9902 84.0125 19.9902 84.0142 19.9884L93.6106 16.884H93.6124C93.6195 16.8804 93.6266 16.8777 93.6337 16.8741C93.6408 16.8714 93.6479 16.8688 93.6542 16.8652C93.6595 16.8625 93.6648 16.8589 93.6702 16.8553C93.6773 16.8509 93.6853 16.8464 93.6924 16.841C93.6977 16.8374 93.7022 16.833 93.7075 16.8285C93.7137 16.8231 93.7208 16.8178 93.7262 16.8115C93.7315 16.8061 93.7351 16.8008 93.7395 16.7954C93.7448 16.7891 93.7502 16.7837 93.7546 16.7766C93.7591 16.7712 93.7617 16.765 93.7653 16.7587C93.7697 16.7515 93.7742 16.7444 93.7777 16.7372C93.7804 16.7309 93.7831 16.7256 93.7849 16.7193C93.7884 16.7113 93.792 16.7023 93.7946 16.6934C93.7946 16.6916 93.7964 16.6898 93.7973 16.6871C93.7982 16.6835 93.7982 16.6799 93.7991 16.6773C93.8017 16.6656 93.8035 16.6531 93.8053 16.6415C93.8053 16.6352 93.8062 16.6289 93.8071 16.6227C93.8071 16.6191 93.8071 16.6155 93.8071 16.6119V3.39076H93.8062ZM74.5682 3.76572L80.584 5.43112L74.5682 15.5756V3.76572ZM83.6364 5.68437L81.4536 5.08032L83.6408 1.39067L83.6355 5.68437H83.6364ZM83.6364 6.27679L83.6275 13.7286L74.89 16.1475L81.1512 5.58862L83.6346 6.27679H83.6364ZM84.1947 14.3246L86.406 14.9367L84.1894 18.7078L84.1947 14.3246ZM84.1947 13.7322L84.2036 6.26784L92.9206 3.85342L86.7047 14.4266L84.1938 13.7313L84.1947 13.7322ZM84.2045 5.67542L84.2107 0.679225L92.5303 3.37017L84.2054 5.67542H84.2045ZM80.8863 4.92281L75.2795 3.37017L83.3456 0.773189L80.8854 4.92192L80.8863 4.92281ZM83.6266 14.321L83.6204 19.3172L75.2795 16.6316L83.6257 14.321H83.6266ZM86.9733 15.0942L92.5294 16.6325L84.5522 19.2134L86.9733 15.0942ZM87.2729 14.5841L93.238 4.4351V16.2361L87.272 14.5841H87.2729Z" fill="black"/>
<path d="M128.023 6.13867H126.633V14.0639H128.023V6.13867Z" fill="black"/>
<path d="M137.225 9.36763C135.997 9.21281 135.496 8.86291 135.496 8.15863C135.496 7.45435 136.08 7.08297 137.097 7.08297C138.114 7.08297 138.75 7.49104 138.75 8.20248V8.28123H140.074V8.20248C140.074 6.82703 138.911 5.9375 137.11 5.9375C135.31 5.9375 134.081 6.83866 134.081 8.18011C134.081 9.52155 135.03 10.2706 136.984 10.4889C138.378 10.6438 138.921 10.9892 138.921 11.7203C138.921 12.4514 138.28 12.906 137.164 12.906C136.047 12.906 135.313 12.4496 135.313 11.6863V11.6076H133.95V11.6863C133.95 13.1298 135.211 14.0622 137.164 14.0622C139.116 14.0622 140.338 13.1387 140.338 11.7087C140.338 10.3771 139.349 9.63342 137.226 9.36674L137.225 9.36763Z" fill="black"/>
<path d="M164.58 6.13849L164.558 6.09375H163.961L160.227 13.9053L160.22 14.0628H161.661L162.378 12.4842L164.254 8.61914L166.224 12.7025L166.832 14.0628H168.285V13.9402L164.58 6.13849Z" fill="black"/>
<path d="M120.102 8.67033C120.102 7.1329 118.913 6.13867 117.073 6.13867H113.991V7.26176H117.034C118.076 7.26176 118.674 7.77901 118.674 8.68107C118.674 9.58312 118.081 10.1227 117.047 10.1227H113.991V14.0639H115.381V11.2342H117.059L119 14.0639H120.483V13.9153L118.442 11.0167C119.484 10.6212 120.102 9.75047 120.102 8.66943V8.67033Z" fill="black"/>
<path d="M147.877 11.8516H146.487V14.062H147.877V11.8516Z" fill="black"/>
<path d="M154.764 11.8516H153.374V14.062H154.764V11.8516Z" fill="black"/>
<path d="M154.19 6.11523L150.619 10.2031L147.07 6.14208L147.047 6.11523H146.487V10.8304H147.877L147.865 8.98874L150.507 11.984L150.531 12.0099H150.719L153.374 8.99232V10.8439H154.764V10.8304V8.63347V6.11523H154.19Z" fill="black"/>
<path d="M104.601 6.13867H101.69V14.0639H103.08V7.26176H104.575C105.725 7.26176 106.412 7.8336 106.412 8.79203C106.412 9.75047 105.726 10.3223 104.575 10.3223H104.232V11.4561H104.601C106.538 11.4561 107.84 10.3814 107.84 8.7813C107.84 7.18122 106.538 6.13867 104.601 6.13867Z" fill="black"/>
</g>
<path d="M6.78 7H4.05V14H5.05V11.88H6.78C8.6 11.88 9.7 10.96 9.7 9.44C9.7 7.92 8.6 7 6.78 7ZM6.75 11.01H5.05V7.87H6.75C8.03 7.87 8.7 8.44 8.7 9.44C8.7 10.44 8.03 11.01 6.75 11.01ZM13.2796 14.06C14.8696 14.06 16.0296 12.93 16.0296 11.35C16.0296 9.77 14.8696 8.65 13.2796 8.65C11.6896 8.65 10.5196 9.77 10.5196 11.35C10.5196 12.93 11.6896 14.06 13.2796 14.06ZM13.2796 13.22C12.2596 13.22 11.4896 12.48 11.4896 11.35C11.4896 10.22 12.2596 9.49 13.2796 9.49C14.2996 9.49 15.0596 10.22 15.0596 11.35C15.0596 12.48 14.2996 13.22 13.2796 13.22ZM24.3708 8.7L22.7908 12.94L21.2208 8.7H20.4108L18.8108 12.92L17.2708 8.7H16.3608L18.3308 14H19.2508L20.8008 9.98L22.3308 14H23.2508L25.2308 8.7H24.3708ZM30.8484 11.38C30.8484 9.75 29.7584 8.65 28.2284 8.65C26.6984 8.65 25.5684 9.78 25.5684 11.35C25.5684 12.93 26.7084 14.06 28.4184 14.06C29.2984 14.06 30.0284 13.76 30.5084 13.2L29.9784 12.58C29.5884 13.01 29.0684 13.22 28.4484 13.22C27.3984 13.22 26.6484 12.6 26.5284 11.67H30.8284C30.8384 11.58 30.8484 11.46 30.8484 11.38ZM28.2284 9.46C29.1584 9.46 29.8284 10.09 29.9284 10.98H26.5284C26.6284 10.08 27.3084 9.46 28.2284 9.46ZM33.1015 9.59V8.7H32.1815V14H33.1415V11.36C33.1415 10.2 33.7815 9.57 34.8115 9.57C34.8815 9.57 34.9515 9.57 35.0315 9.58V8.65C34.1015 8.65 33.4415 8.97 33.1015 9.59ZM40.9559 11.38C40.9559 9.75 39.8659 8.65 38.3359 8.65C36.8059 8.65 35.6759 9.78 35.6759 11.35C35.6759 12.93 36.8159 14.06 38.5259 14.06C39.4059 14.06 40.1359 13.76 40.6159 13.2L40.0859 12.58C39.6959 13.01 39.1759 13.22 38.5559 13.22C37.5059 13.22 36.7559 12.6 36.6359 11.67H40.9359C40.9459 11.58 40.9559 11.46 40.9559 11.38ZM38.3359 9.46C39.2659 9.46 39.9359 10.09 40.0359 10.98H36.6359C36.7359 10.08 37.4159 9.46 38.3359 9.46ZM46.3289 6.58V9.5C45.8889 8.93 45.2289 8.65 44.4789 8.65C42.9289 8.65 41.7989 9.73 41.7989 11.35C41.7989 12.97 42.9289 14.06 44.4789 14.06C45.2589 14.06 45.9389 13.76 46.3689 13.16V14H47.2889V6.58H46.3289ZM44.5589 13.22C43.5389 13.22 42.7689 12.48 42.7689 11.35C42.7689 10.22 43.5389 9.49 44.5589 9.49C45.5689 9.49 46.3389 10.22 46.3389 11.35C46.3389 12.48 45.5689 13.22 44.5589 13.22ZM54.6009 8.65C53.8509 8.65 53.1909 8.93 52.7509 9.5V6.58H51.7909V14H52.7109V13.16C53.1409 13.76 53.8209 14.06 54.6009 14.06C56.1509 14.06 57.2809 12.97 57.2809 11.35C57.2809 9.73 56.1509 8.65 54.6009 8.65ZM54.5209 13.22C53.5109 13.22 52.7409 12.48 52.7409 11.35C52.7409 10.22 53.5109 9.49 54.5209 9.49C55.5409 9.49 56.3109 10.22 56.3109 11.35C56.3109 12.48 55.5409 13.22 54.5209 13.22ZM62.2108 8.7L60.3808 12.94L58.5308 8.7H57.5308L59.8708 13.99L59.7008 14.36C59.4408 14.97 59.1508 15.18 58.6908 15.18C58.3308 15.18 58.0008 15.04 57.7408 14.79L57.3308 15.51C57.6608 15.83 58.1808 16 58.6908 16C59.5008 16 60.1108 15.65 60.5808 14.53L63.1508 8.7H62.2108ZM64.3451 10.02C64.7051 10.02 65.0051 9.73 65.0051 9.33C65.0051 8.93 64.7051 8.65 64.3451 8.65C63.9751 8.65 63.6651 8.93 63.6651 9.33C63.6651 9.73 63.9751 10.02 64.3451 10.02ZM64.3451 14.06C64.7051 14.06 65.0051 13.77 65.0051 13.37C65.0051 12.97 64.7051 12.69 64.3451 12.69C63.9751 12.69 63.6651 12.97 63.6651 13.37C63.6651 13.77 63.9751 14.06 64.3451 14.06Z" fill="black"/>
<defs>
<clipPath id="clip0_1184_2">
<rect width="94.2857" height="20" fill="white" transform="translate(74)"/>
</clipPath>
</defs>
</svg>
